<svg xmlns="http://www.w3.org/2000/svg" width="404" height="663" viewBox="0 0 404 663">
  <path fill="#3AA6FE" d="M159.161002,113.158709 L240.709358,113.158709 L240.709358,108.856768 C240.709358,106.594015 238.92093,104.758068 236.716742,104.758068 L163.14042,104.758068 C160.94943,104.758068 159.154403,106.594015 159.154403,108.856768 L159.154403,113.158709 L159.161002,113.158709 Z M223.551009,98.6676033 L223.524611,96.8994038 C223.524611,94.6434251 221.736183,92.773605 219.518796,92.773605 L178.800713,92.773605 C176.596525,92.773605 174.808097,94.6095516 174.808097,96.8790796 L174.808097,98.674378 L223.551009,98.6676033 L223.551009,98.6676033 Z M194.718382,86.6831401 L204.254465,86.6831401 C206.537845,71.8803973 209.243585,54.3542209 210.893426,43.8127711 L208.418664,43.8127711 C207.877516,43.8127711 207.349567,43.5282333 207.012999,43.0946518 L204.643827,50.9126679 C203.970692,53.0941247 201.667514,52.9450811 201.264952,50.6958771 L199.450127,40.3983169 L197.6485,50.6958771 C197.245939,52.9450811 194.955959,53.0941247 194.256427,50.9126679 L191.874056,43.0946518 C191.550687,43.5282333 191.035936,43.8127711 190.494788,43.8127711 L188.020026,43.8127711 C189.669868,54.3609956 192.435002,71.887172 194.718382,86.6831401 Z M185.835637,86.6831401 L191.20752,86.6831401 C188.772354,70.9793608 185.835637,52.3760054 184.258388,42.3223348 C184.080205,41.170634 184.839132,40.2492733 185.974223,40.2492733 L188.745957,40.2492733 L188.745957,32.6141744 C188.745957,30.2159268 191.438498,29.7891201 192.151229,32.0789723 L195.46411,42.925284 L197.734292,30.0397844 C198.143453,27.7092839 200.750202,27.7092839 201.172561,30.0397844 L203.442743,42.925284 L206.755624,32.0789723 C207.441958,29.7823454 210.160897,30.2159268 210.160897,32.6141744 L210.160897,40.2628227 L212.93263,40.2628227 C214.067721,40.2628227 214.839847,41.1774087 214.661664,42.3358842 C213.091015,52.3895548 210.213692,70.9929102 207.791725,86.6966895 L213.486977,86.6966895 C213.757551,85.7414553 213.876339,85.0572096 213.876339,85.0572096 C213.876339,85.0572096 220.502102,44.3411985 222.277331,28.4070791 C224.15815,12.0461529 205.996697,18.8073141 199.615111,9.34981803 C193.147733,18.7192429 175.124867,12.161323 176.952891,28.4070791 C178.721521,43.9685895 185.07011,83.1060929 185.367082,84.9555889 C185.400078,85.1249567 185.565063,85.8024277 185.835637,86.6831401 Z M161.47738,238.856691 L238.544766,238.761845 L254.00048,238.863465 C259.801322,238.863465 264.519868,234.033097 264.519868,228.057802 L264.467073,166.292765 C264.467073,164.673609 265.84634,163.25092 267.430188,163.25092 L273.462008,163.257695 C277.408428,163.257695 277.395229,169.327835 273.462008,169.327835 L270.380104,169.327835 L270.380104,172.078368 L273.462008,172.078368 C277.395229,172.078368 277.395229,178.148509 273.462008,178.148509 L270.380104,178.148509 L270.380104,180.892266 L273.462008,180.892266 C277.395229,180.892266 277.395229,186.969182 273.462008,186.969182 L270.380104,186.969182 L270.380104,189.71294 L273.462008,189.71294 C277.395229,189.71294 277.395229,195.789855 273.462008,195.789855 L270.380104,195.789855 L270.380104,201.548359 L275.382423,201.548359 C277.764794,201.548359 279.67201,199.576918 279.67201,197.138023 L279.67201,161.435297 C279.67201,158.989627 277.764794,157.024961 275.382423,157.024961 L267.469784,157.024961 C265.885936,157.024961 264.506669,155.595497 264.506669,153.983116 L264.506669,130.027739 C264.506669,124.065993 259.801322,119.22885 254.00048,119.22885 L146.787193,119.22885 C140.986351,119.22885 136.267805,124.059219 136.267805,130.027739 L136.267805,153.983116 C136.267805,155.602272 134.888537,157.024961 133.331087,157.024961 L125.312858,157.024961 C122.943686,157.024961 121.03647,158.996402 121.03647,161.435297 L121.03647,197.138023 C121.03647,199.583693 122.943686,201.548359 125.312858,201.548359 L130.367972,201.548359 L130.367972,195.789855 L127.27287,195.789855 C123.326449,195.789855 123.326449,189.71294 127.27287,189.71294 L130.367972,189.71294 L130.367972,186.969182 L127.27287,186.969182 C123.326449,186.969182 123.326449,180.892266 127.27287,180.892266 L130.367972,180.892266 L130.367972,178.148509 L127.27287,178.148509 C123.326449,178.148509 123.326449,172.078368 127.27287,172.078368 L130.367972,172.078368 L130.367972,169.327835 L127.27287,169.327835 C123.326449,169.327835 123.326449,163.257695 127.27287,163.257695 L133.317888,163.25092 C134.888537,163.25092 136.267805,164.680384 136.267805,166.292765 L136.267805,228.057802 C136.267805,234.019547 140.973152,238.863465 146.787193,238.863465 L161.47738,238.863465 L161.47738,238.856691 Z M362.177274,137.324102 C362.586435,136.666955 363.25957,136.21305 363.992099,136.030132 L370.307692,134.620993 C370.914834,134.383878 371.581369,134.336455 372.214908,134.57357 C372.874845,134.770036 373.402794,135.223942 373.732762,135.779468 L402.928354,169.822389 C403.403508,170.242421 403.779672,170.818272 403.891861,171.516067 C404.030448,172.186763 403.918259,172.864234 403.647685,173.446859 L396.249797,195.999871 L389.511845,216.574667 C389.320463,217.164067 388.792514,218.302219 387.307657,218.573207 L385.539027,218.945816 C387.875202,236.29585 382.985072,254.648541 373.072826,268.814461 C366.638445,277.97387 358.250652,285.59542 348.608979,291.631687 C335.773214,299.680043 320.73986,304.950768 305.237951,307.294818 L305.264349,404.078334 C305.264349,405.690715 303.885081,407.120179 302.314432,407.120179 L292.309795,407.120179 L292.309795,413.298715 L298.70458,413.298715 C300.26203,413.298715 301.641297,414.728179 301.641297,416.34056 L301.641297,438.01286 C301.641297,447.185818 294.949541,454.73962 286.291174,455.80325 L286.291174,514.133509 C286.291174,519.742969 281.8564,524.309124 276.365728,524.309124 L272.91426,524.309124 C270.696874,524.309124 268.921644,526.145071 268.921644,528.407824 L268.921644,545.317502 C268.921644,550.940512 264.473672,555.506667 259.009398,555.506667 L245.408106,555.506667 C239.930633,555.506667 235.482661,550.933737 235.482661,545.317502 L235.482661,528.407824 C235.482661,526.145071 233.694233,524.309124 231.490045,524.309124 L228.025378,524.309124 C222.561104,524.309124 218.12633,519.742969 218.12633,514.133509 L218.179125,455.925195 L180.734327,455.925195 L180.734327,514.133509 C180.734327,519.742969 176.286355,524.309124 170.808882,524.309124 L167.344215,524.309124 C165.140027,524.309124 163.358199,526.145071 163.358199,528.407824 L163.358199,545.317502 C163.358199,550.940512 158.897028,555.506667 153.432753,555.506667 L139.831462,555.506667 C134.367187,555.506667 129.906016,550.940512 129.906016,545.317502 L129.906016,528.407824 C129.906016,526.145071 128.124188,524.309124 125.92,524.309124 L122.461933,524.309124 C116.971261,524.309124 112.536487,519.742969 112.536487,514.133509 L112.61568,455.925195 C103.218184,455.633882 95.6817085,447.707471 95.6817085,438.006085 L95.6817085,416.333786 C95.6817085,414.721405 97.0741746,413.291941 98.6316248,413.291941 L106.326485,413.291941 L106.326485,407.099855 L98.6316248,407.099855 C97.0609759,407.099855 95.6817085,405.670391 95.6817085,404.071559 L95.6553111,308.568463 C85.3800995,311.149628 77.2364828,315.607388 71.3102529,320.823915 C64.572301,326.751787 59.3390044,335.003384 59.5831809,344.12892 L60.0055403,344.020524 C60.9492495,343.76986 61.9919492,343.986651 62.8960622,344.975758 L92.6064044,378.822213 C93.1079561,379.242245 93.4841199,379.797771 93.5963091,380.488792 C93.7480945,381.179812 93.6491041,381.843734 93.3785301,382.446683 L79.8036359,425.70321 C79.5990556,426.712642 78.8731254,427.634003 77.5334542,427.925316 L70.8812941,429.442851 C69.9903798,429.632543 69.271049,429.483499 68.6903049,429.104115 C68.0567658,428.731506 67.5684128,428.101458 67.3506337,427.132674 L60.8898552,396.050302 C60.2431174,392.967809 59.9263479,389.702398 58.1181218,387.053486 C56.7916494,385.136243 54.9504265,383.666131 52.845229,382.846391 C51.7629331,382.426359 50.6278423,382.141821 49.4399566,382.087623 C46.7606143,381.93858 42.3126422,383.022533 40.0820567,384.485871 C38.28043,385.684995 36.8483678,387.392222 35.931056,389.370437 C34.9279525,391.578993 34.5913849,394.133059 35.1325328,396.727773 L42.5172225,432.430498 C42.6690079,433.385732 42.5172225,434.110626 42.1674562,434.679702 C41.7648949,435.343624 41.098359,435.790755 40.3658295,435.980447 L34.0634357,437.470883 C33.4562941,437.707998 32.8029569,437.748646 32.1430204,437.53863 C31.4830839,437.362488 30.9683334,436.901807 30.6119677,436.346281 L1.05341096,402.567574 C0.551859207,402.154316 0.175695391,401.578466 0.0767049132,400.900995 C-0.0882792168,400.223524 0.0239099916,399.559602 0.307682695,398.956653 L7.50099076,376.30202 L14.0211636,355.632378 C14.1993464,355.036204 14.7074976,353.891278 16.1989541,353.60674 L17.9807827,353.207032 C15.4664246,335.863773 20.1717719,317.43656 29.9388324,303.162244 C36.2940211,293.914764 44.6356187,286.205143 54.2112976,280.060481 C67.7201982,271.395626 83.6774632,265.826814 100.096684,263.516638 C100.816015,262.676573 101.627737,261.904256 102.492253,261.226785 C103.020203,260.813528 103.561351,260.41382 104.142095,260.075085 C106.781841,258.442379 109.863744,257.514244 113.150228,257.514244 L166.552291,257.527793 L166.552291,244.913282 L146.820189,244.913282 C137.759261,244.913282 130.414168,237.366254 130.414168,228.051027 L130.414168,207.930137 L130.414168,207.625275 L125.359054,207.625275 C119.716597,207.625275 115.136637,202.923625 115.136637,197.138023 L115.136637,161.435297 C115.136637,155.649695 119.709997,150.941271 125.359054,150.941271 L130.414168,150.941271 L130.414168,130.020964 C130.414168,120.705737 137.759261,113.151935 146.820189,113.151935 L153.280968,113.151935 L153.280968,108.849993 C153.280968,103.226984 157.715741,98.6676033 163.193215,98.6676033 L168.928063,98.6676033 L168.928063,96.8926291 C168.928063,91.2696192 173.376035,86.710239 178.853508,86.710239 L179.731224,86.710239 L179.599236,86.0937403 C179.599236,86.0937403 172.920679,45.1473891 171.119052,29.1184237 C169.845375,17.8317558 175.60662,12.4729596 184.990918,10.0476132 C187.300696,9.45143869 195.120943,7.87293111 195.120943,5.07497561 C195.120943,2.27702011 196.876375,-0.0399309313 199.648108,0.000717332571 C202.459437,-0.046705642 204.208269,2.26347069 204.208269,5.07497561 C204.208269,11.5922473 230.783913,6.2740994 228.196962,29.1184237 C226.395335,45.1473891 219.743175,86.0327679 219.743175,86.0327679 C219.716777,86.147938 219.663983,86.3850528 219.604588,86.7034642 C225.068863,86.7373378 229.490437,91.2763939 229.490437,96.8858543 L229.516835,98.6811527 L236.776136,98.6811527 C242.240411,98.6811527 246.701582,103.247308 246.701582,108.863543 L246.701582,113.165484 L254.046675,113.165484 C263.120802,113.165484 270.465896,120.719286 270.465896,130.034514 L270.465896,150.95482 L275.428618,150.95482 C281.064476,150.95482 285.637836,155.656469 285.637836,161.448847 L285.637836,197.151572 C285.637836,202.937175 281.064476,207.638824 275.428618,207.638824 L270.465896,207.638824 L270.465896,228.071351 C270.465896,237.386579 263.120802,244.933606 254.046675,244.933606 L234.479557,244.940381 L234.479557,257.581991 C264.948827,257.59554 289.359878,257.602315 289.802036,257.656513 L290.191398,257.697161 C292.870741,258.06977 295.3719,259.045328 297.523293,260.508666 C298.994952,261.497774 300.281828,262.703672 301.390521,264.065389 L302.096653,263.929895 L303.924677,263.516638 C316.027913,261.23356 325.399012,256.477713 332.037973,250.766632 C338.802322,244.906507 344.114811,236.729432 343.976225,227.610671 L343.567064,227.712292 C342.610156,227.956181 341.554258,227.732616 340.689741,226.729959 L311.421556,192.734461 C311.018995,192.239907 310.623033,191.8131 310.405254,191.575985 C309.712321,190.871415 310.213872,189.746813 310.213872,189.746813 L311.969304,184.78095 L324.58729,145.934759 C324.805069,144.911778 325.530999,144.003967 326.87067,143.712654 L333.52283,142.276416 C334.426943,142.093499 335.146274,142.256092 335.71382,142.635475 C336.347359,143.008084 336.84891,143.665231 337.013894,144.613691 L343.177702,175.736712 C343.798042,178.82598 344.095013,182.084615 345.870243,184.753851 C347.157119,186.691419 348.991742,188.17508 351.09034,189.021919 C352.159438,189.455501 353.28133,189.726489 354.469215,189.807786 C357.148558,189.983928 361.609729,188.967722 363.853513,187.504384 C365.668338,186.339134 367.113599,184.652231 368.030911,182.687565 C369.073611,180.46546 369.436576,177.931718 368.921825,175.350553 L361.913299,139.613954 C361.662524,138.597748 361.827508,137.886403 362.177274,137.324102 Z M172.445525,257.548117 L228.513731,257.568442 L228.513731,244.926831 L172.445525,244.926831 L172.445525,257.548117 L172.445525,257.548117 Z M112.213118,407.099855 L112.213118,413.291941 L128.803922,413.291941 L128.803922,407.099855 L112.213118,407.099855 Z M134.730152,407.099855 L134.730152,413.291941 L151.320957,413.291941 L151.320957,407.099855 L134.730152,407.099855 Z M157.247186,407.099855 L157.247186,413.291941 L173.837991,413.291941 L173.837991,407.099855 L157.247186,407.099855 Z M179.757621,407.099855 L179.757621,413.291941 L196.361624,413.291941 L196.361624,407.099855 L179.757621,407.099855 Z M202.261457,407.099855 L202.261457,413.291941 L218.865459,413.291941 L218.865459,407.099855 L202.261457,407.099855 Z M224.778491,407.099855 L224.778491,413.291941 L241.382493,413.291941 L241.382493,407.099855 L224.778491,407.099855 Z M247.282326,407.099855 L247.282326,413.291941 L263.886329,413.291941 L263.886329,407.099855 L247.282326,407.099855 Z M269.812559,407.099855 L269.812559,413.291941 L286.403363,413.291941 L286.403363,407.099855 L269.812559,407.099855 Z M224.092157,455.925195 L224.012964,514.140283 C224.012964,516.396262 225.801392,518.245758 228.00558,518.245758 L231.470247,518.232209 C236.960919,518.232209 241.395692,522.784814 241.395692,528.407824 L241.395692,545.331051 C241.395692,547.593805 243.177521,549.422976 245.388308,549.422976 L258.9896,549.422976 C261.193788,549.422976 262.975616,547.593805 262.975616,545.331051 L262.975616,528.407824 C262.975616,522.784814 267.423588,518.232209 272.901062,518.232209 L276.35253,518.245758 C278.569916,518.245758 280.358344,516.396262 280.358344,514.126734 L280.358344,455.925195 L224.092157,455.925195 Z M118.502313,455.925195 L118.423121,514.140283 C118.423121,516.396262 120.211549,518.245758 122.428936,518.245758 L125.893602,518.232209 C131.357877,518.232209 135.819048,522.784814 135.819048,528.407824 L135.819048,545.331051 C135.819048,547.593805 137.600876,549.422976 139.805064,549.422976 L153.406356,549.422976 C155.610544,549.422976 157.398972,547.593805 157.398972,545.331051 L157.398972,528.407824 C157.398972,522.784814 161.833745,518.232209 167.311218,518.232209 L170.775885,518.245758 C172.980073,518.245758 174.768501,516.396262 174.768501,514.126734 L174.768501,455.925195 L118.502313,455.925195 Z M101.568342,438.01286 C101.568342,444.550456 106.748844,449.868603 113.117231,449.868603 L284.199175,449.868603 C290.59396,449.868603 295.761263,444.550456 295.761263,438.01286 L295.761263,419.362081 L101.581541,419.362081 L101.568342,438.01286 L101.568342,438.01286 Z M106.082308,266.057154 C105.270586,266.700752 104.663445,267.378223 104.029906,268.218287 C103.620745,268.794137 103.099395,269.126098 102.558247,269.275142 C102.366865,269.342889 102.149086,269.390312 101.937907,269.41741 C98.2884578,269.89164 94.6654063,270.535238 91.0951497,271.348203 C91.3261275,271.734362 91.5175091,272.262789 91.6362977,272.953809 L93.6952996,285.019569 C94.0054698,286.733571 93.6161072,287.69558 92.4480196,287.898821 C91.2733326,288.115612 90.5803992,287.356844 90.2966265,285.642843 L88.2244259,273.577083 C88.1056373,272.980908 88.1056373,272.47958 88.1584322,272.059548 C86.6471776,272.452481 85.1293236,272.865738 83.6312677,273.312869 C83.7962518,273.624506 83.9414379,274.00389 84.0536271,274.46457 L87.1223319,286.299989 C87.5710887,287.986892 87.287316,288.962451 86.1456258,289.267313 C84.9841376,289.599274 84.2384093,288.908253 83.7896525,287.22135 L80.7143483,275.385931 C80.5955597,274.986223 80.5625629,274.613614 80.5229667,274.301977 C79.3086835,274.701685 78.1141984,275.114942 76.9263127,275.562073 C77.0583,275.812737 77.1836879,276.131149 77.2892777,276.483434 L80.9915216,288.129161 C81.5326696,289.802515 81.2752943,290.784848 80.1402035,291.157457 C78.991914,291.536841 78.2197882,290.886469 77.7050377,289.21989 L74.0027939,277.574162 C73.9104028,277.28285 73.8510085,277.011861 73.8114123,276.754422 C72.432145,277.316723 71.0792751,277.892574 69.739604,278.495523 C69.8715913,278.705539 69.957383,278.915555 70.0761716,279.186543 L74.7419228,290.459662 C75.415058,292.072043 75.2434745,293.081475 74.1479799,293.555705 C73.0392865,294.036709 72.2143659,293.460859 71.5346313,291.855252 L66.8820788,280.588908 C66.7632902,280.365343 66.7170947,280.162102 66.6642998,279.965635 C65.3378274,280.616007 64.0509511,281.286704 62.7574756,281.991273 C62.8894629,282.153867 62.9752546,282.336784 63.0940432,282.540025 L68.7035036,293.359238 C69.5020268,294.903872 69.4228344,295.913304 68.366936,296.495929 C67.3110376,297.071779 66.433322,296.570451 65.6216001,295.032591 L60.0253384,284.213379 C59.9329473,284.044011 59.8603542,283.861094 59.7943606,283.71205 C58.9562412,284.199829 58.1445193,284.701158 57.3591948,285.22281 C56.7388545,285.615744 56.1317129,286.015452 55.5443694,286.421934 L55.8413408,286.821642 L62.6980813,296.854989 C63.6549892,298.284453 63.7011848,299.300659 62.7376775,300.005229 C61.7741702,300.709799 60.8172622,300.32364 59.8471555,298.894177 L53.0036138,288.854055 C52.898024,288.711786 52.7990335,288.549193 52.7198411,288.413699 C51.5319554,289.274087 50.3770665,290.168349 49.2683731,291.08971 C49.4003604,291.211655 49.4993509,291.333599 49.6181395,291.475868 L57.2998006,300.858843 C58.3952952,302.193461 58.5272825,303.216442 57.6099707,303.995534 C56.692659,304.7814 55.7291516,304.483313 54.6468557,303.148695 L46.9651946,293.758946 C46.8332073,293.616677 46.7474156,293.467633 46.6418258,293.332139 C45.5463311,294.307697 44.477234,295.30358 43.447733,296.333336 C43.5863197,296.455281 43.7447044,296.584 43.8700924,296.726269 L52.3106805,305.391124 C53.5249637,306.617347 53.729544,307.620004 52.8914246,308.487167 C52.0401065,309.367879 51.0765992,309.137539 49.862316,307.911316 L41.4217279,299.246461 C41.2831412,299.110967 41.1643526,298.968698 41.0323653,298.839979 C39.8048834,300.174597 38.6367958,301.556638 37.5281024,302.959003 C37.6666891,303.053849 37.7854777,303.148695 37.9372631,303.25709 L47.460147,310.63475 C48.8262156,311.678056 49.175982,312.63329 48.4368531,313.615623 C47.7439197,314.597956 46.7210181,314.530209 45.3549495,313.473354 L35.8320656,306.109243 C35.7000783,305.994073 35.5350941,305.878903 35.4295043,305.770508 L34.809164,306.644446 C34.1162306,307.660652 33.4562941,308.690408 32.8095563,309.726939 L33.2187169,309.964054 L43.4411336,316.278084 C44.9127921,317.172346 45.3483502,318.093707 44.7412086,319.130237 C44.1076695,320.187092 43.1177647,320.22774 41.6725038,319.333479 L31.4236896,313.019448 L31.0607245,312.789108 C30.2226051,314.381165 29.424082,316.007096 28.7179499,317.660125 L28.9885238,317.761746 L39.9566688,322.551466 C41.514119,323.235712 42.0948631,324.069001 41.6197088,325.207153 C41.170952,326.338529 40.1612491,326.521447 38.6037989,325.843976 L27.6092565,321.054255 L27.4046762,320.952634 C26.8503295,322.422747 26.3619765,323.913183 25.919819,325.423943 L37.4819069,329.048414 C39.1053507,329.549742 39.7388898,330.322059 39.4023221,331.500859 C39.039357,332.672884 38.0890485,332.964196 36.4788033,332.456093 L25.0619016,328.885821 C24.5603498,330.721767 24.1973847,332.578038 23.913612,334.441083 L35.640684,336.14831 C37.303724,336.365101 38.0758497,337.029023 37.8976669,338.248471 C37.7458815,339.474693 36.8285697,339.9015 35.1655297,339.664385 L23.4846533,337.957158 C23.3328679,339.637286 23.227278,341.303865 23.2008806,342.970444 L34.8553595,343.173685 C36.5711945,343.194009 37.4093138,343.776635 37.3829164,344.996083 C37.3565189,346.222305 36.5052008,346.777831 34.8025646,346.737183 L23.2404768,346.540717 C23.3460666,348.363114 23.4846533,350.165187 23.7288298,351.974034 L46.4174473,346.987847 C50.2714766,346.141009 51.5055579,352.06888 47.658128,352.915719 L19.0960754,359.209425 L13.0906531,378.219264 L6.35270122,399.559602 L34.1030319,431.278797 L36.129037,430.791018 L29.3514889,398.028517 C28.539767,394.099185 29.0545175,390.196952 30.5921696,386.84347 C31.9582382,383.828724 34.12283,381.261109 36.8813646,379.425162 C40.141451,377.257255 45.8499019,375.834565 49.7963223,376.051356 C51.5781509,376.180076 53.3005852,376.552685 54.9240291,377.189508 C58.157718,378.456378 60.9690476,380.705582 62.9554565,383.618708 C65.4302185,387.243178 65.8063823,390.58311 66.6642998,394.81053 L72.5179367,422.878156 L74.5769386,422.424251 L87.3005147,381.918256 L59.6293765,350.402302 L57.6033713,350.849433 C56.6728609,351.039124 55.9007351,350.862982 55.319991,350.44295 C54.6864519,350.050017 54.2112976,349.372546 54.0463135,348.369888 C51.9609141,335.836674 58.2765066,324.32644 67.3968293,316.271309 C74.4053551,310.113097 83.908441,305.086262 95.6223143,302.369603 L95.6223143,282.153867 C95.6223143,278.109364 101.548544,278.109364 101.548544,282.153867 L101.574942,401.036489 L299.377715,401.036489 L299.351317,281.517044 C299.351317,277.465767 305.257749,277.465767 305.257749,281.510269 L305.257749,301.163705 C307.43554,300.81142 309.560535,300.411712 311.69213,299.951031 C311.447954,299.558098 311.28297,299.036445 311.164181,298.33865 L309.20417,286.266116 C308.920397,284.538565 309.336157,283.59688 310.491046,283.407188 C311.678931,283.203947 312.358666,283.969489 312.62924,285.676716 L314.576053,297.74925 C314.694841,298.358974 314.70804,298.860303 314.628848,299.266786 C316.146702,298.894177 317.657956,298.487694 319.169211,298.067662 C319.004227,297.7628 318.859041,297.369867 318.746852,296.922736 L315.796935,285.066992 C315.387775,283.373314 315.678147,282.404531 316.826436,282.099669 C317.974726,281.788032 318.720454,282.485827 319.162612,284.17273 L322.125727,296.028474 C322.231316,296.434957 322.277512,296.794016 322.290711,297.125977 C323.504994,296.733044 324.699479,296.333336 325.913762,295.906529 C325.781775,295.635541 325.656387,295.330679 325.537598,294.971619 L321.980541,283.298793 C321.478989,281.632214 321.736364,280.649881 322.858256,280.290821 C323.993347,279.918212 324.765473,280.575359 325.280223,282.241938 L328.85048,293.921539 C328.942871,294.206077 328.989066,294.490615 329.041861,294.741279 C330.421129,294.199302 331.773999,293.630226 333.126868,293.040827 C332.994881,292.837585 332.895891,292.607245 332.790301,292.343031 L328.249938,281.036039 C327.590001,279.416883 327.761584,278.421001 328.870278,277.953546 C329.978971,277.492866 330.803892,278.075491 331.45063,279.681097 L335.997592,290.988089 C336.089983,291.20488 336.149378,291.408121 336.202173,291.611363 C337.515446,290.97454 338.815521,290.310618 340.108997,289.626372 C340.003407,289.463779 339.904416,289.274087 339.812025,289.070846 L334.321353,278.21776 C333.52283,276.666351 333.62842,275.650144 334.67112,275.087843 C335.740217,274.525542 336.604734,275.026871 337.390058,276.57828 L342.867531,287.438141 C342.959923,287.607509 343.045714,287.783651 343.08531,287.939469 C343.92343,287.458465 344.748351,286.970686 345.546874,286.469357 C346.167214,286.083199 346.774356,285.690265 347.374898,285.290558 L347.064728,284.884075 L340.326776,274.789756 C339.369868,273.353517 339.336871,272.330536 340.313577,271.64629 C341.290283,270.95527 342.233992,271.348203 343.204099,272.784442 L349.935452,282.878761 C350.05424,283.034579 350.126833,283.190397 350.219224,283.325891 C351.420309,282.485827 352.561999,281.61189 353.69709,280.690529 C353.565102,280.568584 353.466112,280.43309 353.347323,280.297596 L345.784451,270.8401 C344.702155,269.498707 344.570168,268.4825 345.487479,267.710183 C346.41799,266.937866 347.381497,267.242728 348.450594,268.584121 L356.013467,278.041617 C356.145454,278.197435 356.231246,278.33293 356.336836,278.475199 C357.445529,277.526739 358.514626,276.517307 359.557326,275.507875 C359.418739,275.385931 359.273553,275.250436 359.148165,275.108167 L350.793369,266.362016 C349.592285,265.115469 349.387704,264.119587 350.239022,263.265973 C351.103539,262.405585 352.080245,262.622376 353.268131,263.875697 L361.609729,272.621849 C361.748315,272.757343 361.880303,272.906386 361.985892,273.041881 C363.233172,271.714037 364.407859,270.359095 365.54295,268.95673 C365.404364,268.868659 365.272376,268.780588 365.13379,268.658643 L355.683499,261.199686 C354.343828,260.142832 353.994061,259.180823 354.726591,258.212039 C355.432723,257.229706 356.442426,257.311003 357.795296,258.374632 L367.245586,265.840363 C367.397372,265.955533 367.529359,266.077478 367.654747,266.185874 L368.275087,265.305161 C368.98122,264.316053 369.641156,263.299847 370.301093,262.242992 L369.898531,262.019426 L359.742108,255.617325 C358.283649,254.695964 357.84809,253.788153 358.481629,252.738073 C359.115169,251.694767 360.118272,251.660894 361.563533,252.595804 L371.719956,258.997906 L372.069722,259.221471 C372.934239,257.656513 373.719564,256.030582 374.452093,254.391102 L374.207917,254.269157 L363.272769,249.371042 C361.715318,248.666472 361.160972,247.826408 361.636126,246.70858 C362.098082,245.577204 363.094586,245.407836 364.665235,246.105631 L375.580585,251.003747 L375.785165,251.105368 C376.339512,249.648805 376.867461,248.171918 377.316218,246.661157 L365.793726,242.914742 C364.170282,242.37954 363.536743,241.613998 363.899708,240.435198 C364.262673,239.269948 365.226181,238.99896 366.836426,239.520612 L378.193933,243.21283 C378.708684,241.390433 379.098046,239.527387 379.408217,237.657567 L367.707542,235.841945 C366.031303,235.584506 365.285575,234.913809 365.450559,233.701136 C365.628742,232.502012 366.546054,232.075205 368.222293,232.32587 L379.876771,234.127943 C380.041756,232.474913 380.147345,230.815109 380.20014,229.141756 L368.545661,228.809795 C366.856224,228.769147 366.031303,228.200071 366.057701,226.973848 C366.084098,225.7544 366.948615,225.205649 368.66445,225.266621 L380.173743,225.585033 C380.120948,223.776185 379.982361,221.967337 379.764582,220.165264 L357.069365,224.914336 C353.202137,225.720527 352.02745,219.779106 355.894678,218.972915 L384.46993,212.99762 L390.666734,194.082628 L397.642263,172.823586 L370.241698,140.867276 L368.215693,141.321182 L374.663273,174.117556 C375.435399,178.040113 374.881052,181.942347 373.310403,185.275504 C371.917937,188.269926 369.726948,190.817218 366.968413,192.612516 C363.681929,194.739775 357.973478,196.108267 354.027058,195.837278 C352.245229,195.708559 350.535994,195.302076 348.91255,194.658478 C345.69206,193.357734 342.920326,191.10853 340.960315,188.168306 C338.551547,184.516737 338.188582,181.163255 337.363661,176.922286 L331.780598,148.834336 L329.721596,149.281467 L316.615257,189.611319 L343.969625,221.391487 L345.995631,220.971455 C346.926141,220.781763 347.685068,220.96468 348.265812,221.364388 C348.899351,221.764096 349.361307,222.455116 349.513092,223.450999 C351.499501,235.984213 345.038723,247.4267 335.852406,255.38021 C328.401723,261.795861 318.179306,266.917542 305.521724,269.376762 L303.423126,269.844217 C302.433221,270.040684 301.634698,270.203277 300.895569,270.331996 C299.965058,270.467491 299.5295,270.528463 298.882762,270.210052 C298.236025,269.939063 297.747672,269.424185 297.463899,268.807687 C296.612581,267.520492 295.517086,266.416214 294.256607,265.5626 C292.837744,264.593817 291.174704,263.943444 289.412673,263.699555 C289.34668,263.699555 113.189824,263.591159 113.189824,263.591159 C111.012034,263.591159 108.959631,264.214433 107.237197,265.284837 C107.032617,265.413556 106.828036,265.508402 106.630055,265.589699 C106.438674,265.759067 106.27369,265.90811 106.082308,266.057154 Z M170.30733,189.021919 C160.546869,189.021919 152.63423,180.905816 152.63423,170.892793 C152.63423,160.866222 160.546869,152.743344 170.30733,152.743344 C180.067791,152.743344 187.967231,160.866222 187.967231,170.892793 C187.954033,180.912591 180.061192,189.021919 170.30733,189.021919 Z M170.30733,182.945004 C176.787907,182.945004 182.047601,177.552334 182.047601,170.892793 C182.047601,164.226478 176.801106,158.827034 170.30733,158.827034 C163.826754,158.827034 158.56706,164.219704 158.56706,170.892793 C158.56706,177.559109 163.813555,182.945004 170.30733,182.945004 Z M235.898421,216.947277 L164.942046,216.947277 C166.605086,219.176156 169.337224,220.693691 172.498319,220.693691 L228.335548,220.693691 C231.516442,220.686917 234.235381,219.176156 235.898421,216.947277 Z M167.331017,203.966931 C162.242906,203.966931 158.124902,206.900381 156.475061,210.856812 L244.240019,210.856812 C242.537382,206.907155 238.531568,204.021129 233.667835,203.966931 L167.331017,203.966931 Z M233.707432,197.89679 C242.642972,197.984861 250.15305,204.6986 250.951573,213.553146 C251.043964,214.623551 250.760191,215.416192 250.245441,215.964943 C249.757088,216.547569 249.00476,216.940502 248.014855,216.940502 L242.603376,216.940502 C240.451983,222.739654 234.829324,226.750283 228.348747,226.750283 L172.498319,226.750283 C166.030942,226.750283 160.408282,222.739654 158.256889,216.940502 L152.819012,216.940502 C151.829108,216.940502 151.089979,216.581442 150.614824,216.039465 C150.086875,215.497488 149.737109,214.704847 149.816301,213.675091 C150.436642,204.657951 158.184296,197.883241 167.166032,197.883241 L233.700832,197.883241 L233.707432,197.89679 L233.707432,197.89679 Z M229.714816,182.945004 C236.208591,182.945004 241.455086,177.552334 241.455086,170.892793 C241.455086,164.226478 236.208591,158.827034 229.714816,158.827034 C223.234239,158.827034 217.961346,164.219704 217.961346,170.892793 C217.961346,177.559109 223.22764,182.945004 229.714816,182.945004 Z M229.714816,189.021919 C219.954355,189.021919 212.054914,180.905816 212.054914,170.892793 C212.054914,160.866222 219.954355,152.743344 229.714816,152.743344 C239.475277,152.743344 247.387916,160.866222 247.387916,170.892793 C247.387916,180.912591 239.468677,189.021919 229.714816,189.021919 Z M251.855686,170.703102 C251.789692,157.966646 241.712462,147.662311 229.299056,147.662311 L170.72969,147.662311 C158.303085,147.662311 148.239053,157.966646 148.239053,170.689552 C148.239053,174.740829 142.326022,174.740829 142.326022,170.689552 C142.326022,154.599614 155.075995,141.585395 170.736289,141.585395 L229.292456,141.585395 C244.965949,141.585395 257.689525,154.586065 257.775317,170.676003 C257.801714,174.720505 251.882083,174.754379 251.855686,170.703102 Z M281.994987,337.963933 C284.331162,337.963933 286.22518,336.019591 286.22518,333.614569 C286.22518,331.216321 284.331162,329.265204 281.994987,329.265204 C279.652212,329.265204 277.738396,331.209546 277.738396,333.614569 C277.738396,336.026366 279.645613,337.963933 281.994987,337.963933 Z M279.05167,343.600492 C274.861073,342.299748 271.805567,338.329767 271.805567,333.614569 C271.805567,328.906145 274.861073,324.922615 279.05167,323.62187 L279.05167,302.674465 C279.05167,298.623188 284.958102,298.623188 284.958102,302.674465 L284.958102,323.63542 C289.122301,324.949714 292.125012,328.912919 292.125012,333.614569 C292.125012,338.295894 289.122301,342.279424 284.958102,343.573393 L284.958102,364.602095 C284.958102,368.660147 279.05167,368.660147 279.05167,364.602095 L279.05167,343.600492 L279.05167,343.600492 Z M240.234204,328.838398 C242.576979,328.838398 244.490794,326.880506 244.490794,324.475484 C244.490794,322.070462 242.583578,320.12612 240.234204,320.12612 C237.898029,320.12612 235.990812,322.077236 235.990812,324.475484 C235.990812,326.887281 237.898029,328.838398 240.234204,328.838398 Z M237.290887,334.461407 C233.10029,333.180987 230.071181,329.197457 230.071181,324.475484 C230.071181,319.76706 233.10029,315.790305 237.290887,314.48956 L237.290887,302.68124 C237.290887,298.629963 243.203918,298.629963 243.203918,302.68124 L243.203918,314.50311 C247.368118,315.803854 250.384028,319.773835 250.384028,324.475484 C250.384028,329.163584 247.368118,333.147114 243.203918,334.447858 L243.203918,364.60887 C243.203918,368.666922 237.290887,368.666922 237.290887,364.60887 L237.290887,334.461407 Z M261.101397,354.65682 C263.444171,354.65682 265.344788,352.705703 265.344788,350.307456 C265.344788,347.909208 263.450771,345.951317 261.101397,345.951317 C258.77842,345.951317 256.871204,347.895659 256.871204,350.307456 C256.871204,352.712478 258.77842,354.65682 261.101397,354.65682 Z M258.171278,364.602095 L258.171278,360.293379 C253.980682,359.019734 250.938374,355.049753 250.938374,350.307456 C250.938374,345.605806 253.980682,341.615502 258.171278,340.314757 L258.171278,302.66769 C258.171278,298.616413 264.08431,298.616413 264.08431,302.66769 L264.08431,340.328307 C268.23531,341.622277 271.264419,345.605806 271.264419,350.307456 C271.264419,354.995555 268.23531,358.972311 264.08431,360.27983 L264.08431,364.602095 C264.07771,368.653372 258.171278,368.653372 258.171278,364.602095 Z M130.605549,289.341835 C135.720057,286.089973 141.30312,283.508809 147.196353,281.706736 C153.459151,279.782718 160.111311,278.752962 166.994449,278.752962 L167.317818,278.752962 C176.002582,278.807159 184.317783,280.487288 191.946649,283.522358 C198.262241,286.008677 204.129077,289.429906 209.388771,293.589578 C215.136818,298.162508 220.20513,303.650023 224.303336,309.781137 L224.507917,310.16052 L224.818087,310.722821 C226.573518,314.184698 226.223752,318.229201 223.372826,320.844239 L188.792152,358.240642 C188.699761,358.349037 188.415988,358.653899 187.954033,359.073931 C185.400078,361.465404 182.153191,363.450394 178.596133,363.450394 L166.98125,363.450394 L155.44556,363.450394 L155.188185,363.450394 C150.535632,363.321675 146.708,359.724303 145.77749,358.789393 L145.559711,358.579377 L116.416914,327.104072 L110.602873,320.810365 C109.276401,319.577368 106.234093,315.43802 109.764754,309.767587 C111.889749,306.583473 114.291918,303.541628 116.892068,300.750447 C120.963877,296.373984 125.570234,292.525949 130.605549,289.341835 Z M114.621887,316.339056 L115.024448,316.765863 L120.706501,322.903751 L149.849298,354.379057 C150.852402,355.368165 153.188577,357.305732 155.33997,357.353155 L166.98125,357.353155 L178.582934,357.353155 C180.582542,357.353155 183.0969,355.557856 184.462969,354.080969 C185.419877,353.024115 219.188828,316.535523 219.531995,316.203562 C220.251326,315.316075 220.020348,314.279544 219.466002,313.303986 L219.327415,313.073646 C215.605373,307.491284 210.999016,302.525421 205.752521,298.392848 C200.954782,294.578686 195.596098,291.462319 189.821653,289.165692 C182.832925,286.408385 175.243655,284.850201 167.304619,284.809553 L166.968051,284.809553 C160.678856,284.809553 154.620639,285.751238 148.885791,287.505888 C143.500709,289.165692 138.3928,291.523291 133.71385,294.497389 C129.100894,297.41729 124.8839,300.919815 121.161858,304.923669 C118.805884,307.457411 116.634693,310.167295 114.701079,313.060097 C114.080739,314.069528 113.711174,315.146707 114.404108,316.156139 L114.621887,316.339056 Z M166.98125,354.609397 C162.988634,354.609397 159.748346,351.289789 159.748346,347.184314 C159.748346,343.078839 162.968836,339.745682 166.98125,339.745682 C170.967267,339.745682 174.200956,343.06529 174.200956,347.184314 C174.200956,351.289789 170.967267,354.609397 166.98125,354.609397 Z M166.98125,349.528364 C168.22853,349.528364 169.251432,348.478284 169.251432,347.184314 C169.251432,345.890344 168.23513,344.840264 166.98125,344.840264 C165.727371,344.840264 164.69787,345.88357 164.69787,347.184314 C164.69787,348.478284 165.73397,349.528364 166.98125,349.528364 Z M178.853508,324.028353 C179.883009,324.312891 180.905911,324.617753 181.909014,324.970038 L188.752556,311.529012 C188.904341,311.169952 188.957136,310.946387 188.970335,310.851541 C188.765755,310.722821 188.415988,310.614426 188.389591,310.600877 C188.284001,310.655074 188.270802,310.804118 188.000228,311.176727 L178.853508,324.028353 Z M143.018955,329.224556 C150.027481,324.909065 158.256889,322.47017 166.98125,322.47017 C168.822473,322.47017 170.630699,322.578565 172.405928,322.775032 L183.334477,307.464186 C188.415988,300.838518 197.589106,306.725742 194.005651,314.299869 L187.406285,327.286989 C188.620569,327.883163 189.801855,328.55386 190.963343,329.265204 L204.907802,314.076303 C195.47071,303.589051 182.001405,297.065005 167.040644,297.031131 C152.01389,297.031131 138.425797,303.6026 128.962307,314.1576 L143.018955,329.224556 Z M211.117805,312.125186 C211.48077,312.531669 211.658953,312.883954 211.764542,313.243014 C211.632555,312.829756 211.421375,312.457147 211.117805,312.125186 Z M211.771142,313.243014 C211.863533,313.514002 211.909728,313.805315 211.909728,314.089853 C211.949325,314.794422 211.691949,315.546415 211.071609,316.230661 L193.609689,335.233724 C192.382207,336.548018 190.877552,336.439623 189.795256,335.660531 C183.248685,331.135025 175.421838,328.526761 166.994449,328.526761 C158.626454,328.526761 150.793007,331.107926 144.345428,335.552136 C143.263132,336.3922 141.692483,336.541244 140.425405,335.193076 L122.8051,316.332282 C121.531422,314.950241 121.815195,313.270113 122.739106,312.199708 C133.397081,299.151616 149.31475,290.933892 167.014247,290.933892 C184.740142,290.96099 200.56542,299.165165 211.124404,312.104862 C211.421375,312.457147 211.632555,312.829756 211.771142,313.243014 Z M107.164604,265.291612 C106.78844,265.535501 106.445273,265.779391 106.082308,266.057154 C106.27369,265.914885 106.445273,265.759067 106.570661,265.596474 C106.762043,265.508402 106.966623,265.400007 107.164604,265.291612 Z M215.004831,643.659202 L287.188687,643.659202 L287.188687,611.221887 L215.004831,611.221887 L215.004831,643.659202 L215.004831,643.659202 Z M290.165001,649.736117 L212.054914,649.736117 L211.771142,649.736117 L206.702829,649.736117 L206.702829,656.93086 L295.121124,656.93086 L295.121124,649.736117 L290.165001,649.736117 Z M218.113132,605.158521 L218.113132,536.618773 C218.113132,531.009313 222.547905,526.443158 228.025378,526.443158 L229.45744,526.443158 C233.41706,526.443158 233.41706,532.513299 229.45744,532.513299 L228.025378,532.513299 C225.807992,532.513299 224.019564,534.35602 224.019564,536.618773 L224.019564,605.158521 L280.463934,605.158521 L280.384742,536.618773 C280.384742,534.35602 278.596314,532.513299 276.378927,532.513299 L274.471711,532.513299 C270.52529,532.513299 270.52529,526.443158 274.471711,526.443158 L276.378927,526.443158 C281.8564,526.443158 286.317571,531.009313 286.317571,536.618773 L286.396763,605.17207 L290.1716,605.17207 C291.742249,605.17207 293.121517,606.601534 293.121517,608.200366 L293.121517,643.659202 L298.097438,643.659202 C299.654888,643.659202 301.047354,645.09544 301.047354,646.701047 L301.047354,659.945606 C301.047354,661.564762 299.654888,662.980676 298.097438,662.980676 L203.726516,662.980676 C202.155867,662.980676 200.776599,661.557987 200.776599,659.945606 L200.776599,646.707821 C200.776599,645.081891 202.155867,643.665976 203.726516,643.665976 L209.078601,643.665976 L209.078601,608.207141 C209.078601,606.59476 210.471067,605.178845 212.041716,605.178845 L218.113132,605.158521 L218.113132,605.158521 Z M109.401789,643.659202 L181.605443,643.659202 L181.605443,611.221887 L109.401789,611.221887 L109.401789,643.659202 Z M184.575158,649.736117 L106.438674,649.736117 L106.181299,649.736117 L101.093188,649.736117 L101.093188,656.93086 L189.53788,656.93086 L189.53788,649.736117 L184.575158,649.736117 Z M112.523289,605.158521 L112.523289,536.618773 C112.523289,531.009313 116.971261,526.443158 122.435535,526.443158 L123.867597,526.443158 C127.827216,526.443158 127.827216,532.513299 123.867597,532.513299 L122.435535,532.513299 C120.231347,532.513299 118.42972,534.35602 118.42972,536.618773 L118.42972,605.158521 L174.88729,605.158521 L174.794899,536.618773 C174.794899,534.35602 173.01307,532.513299 170.802283,532.513299 L168.895066,532.513299 C164.935447,532.513299 164.935447,526.443158 168.895066,526.443158 L170.802283,526.443158 C176.279756,526.443158 180.727728,531.009313 180.727728,536.618773 L180.80692,605.17207 L184.594956,605.17207 C186.178804,605.17207 187.544872,606.601534 187.544872,608.200366 L187.544872,643.659202 L192.507595,643.659202 C194.065045,643.659202 195.457511,645.09544 195.457511,646.701047 L195.457511,659.945606 C195.457511,661.564762 194.051846,662.980676 192.507595,662.980676 L98.1366724,662.980676 C96.5792222,662.980676 95.1999549,661.557987 95.1999549,659.945606 L95.1999549,646.707821 C95.1999549,645.081891 96.5792222,643.665976 98.1366724,643.665976 L103.495357,643.665976 L103.495357,608.207141 C103.495357,606.59476 104.874624,605.178845 106.445273,605.178845 L112.523289,605.158521 L112.523289,605.158521 Z"/>
</svg>
